<?xml version="1.0" standalone="no"?>
<!DOCTYPE svg PUBLIC "-//W3C//DTD SVG 20010904//EN"
 "http://www.w3.org/TR/2001/REC-SVG-20010904/DTD/svg10.dtd">
<svg version="1.0" xmlns="http://www.w3.org/2000/svg"
 width="512.000000pt" height="512.000000pt" viewBox="0 0 512.000000 512.000000"
 preserveAspectRatio="xMidYMid meet">

<g transform="translate(0.000000,512.000000) scale(0.100000,-0.100000)"
fill="#000000" stroke="none">
<path d="M2386 4725 c-3 -9 -6 -110 -6 -225 0 -219 4 -237 47 -228 17 3 18 20
18 233 l0 230 -26 3 c-17 2 -29 -3 -33 -13z"/>
<path d="M1732 4717 c-52 -16 -92 -69 -92 -122 0 -70 31 -97 150 -135 88 -27
101 -34 106 -57 15 -57 -72 -80 -196 -51 -53 12 -69 5 -70 -29 0 -38 177 -69
253 -44 84 28 115 126 61 190 -19 23 -44 36 -97 51 -111 32 -127 40 -133 67
-5 18 0 31 15 46 18 19 32 22 89 20 37 -1 81 -4 97 -5 27 -3 30 0 30 27 0 27
-4 31 -45 42 -55 14 -124 14 -168 0z"/>
<path d="M2084 4599 c-39 -11 -56 -31 -48 -53 6 -15 16 -17 79 -11 66 6 75 5
94 -14 30 -30 26 -41 -14 -41 -63 0 -132 -20 -156 -46 -36 -38 -34 -107 4
-140 33 -29 110 -33 157 -9 26 13 30 13 38 -1 5 -9 18 -14 33 -12 24 3 24 5
27 123 4 137 -8 173 -63 199 -36 17 -102 19 -151 5z m146 -209 c0 -41 -99 -77
-128 -48 -16 16 -15 55 1 61 6 3 38 6 70 6 51 1 57 -1 57 -19z"/>
<path d="M2580 4596 c-27 -10 -35 -18 -35 -37 0 -24 1 -24 76 -21 60 3 79 0
92 -13 31 -31 20 -42 -49 -49 -109 -11 -144 -39 -144 -113 1 -64 37 -93 117
-93 27 0 58 7 70 15 18 13 22 13 33 0 15 -18 42 -19 58 -3 16 16 15 201 -1
248 -24 70 -122 100 -217 66z m150 -204 c0 -41 -77 -75 -119 -53 -23 13 -28
40 -9 59 7 7 38 12 70 12 50 0 58 -3 58 -18z"/>
<path d="M2903 4603 c-10 -3 -13 -46 -13 -164 0 -139 2 -160 16 -166 38 -15
49 9 52 118 3 117 12 134 71 145 20 4 41 11 48 16 14 11 11 18 77 -144 l56
-137 -20 -47 c-27 -61 -23 -88 11 -92 24 -3 29 3 57 70 17 40 58 138 91 218
34 80 61 150 61 156 0 19 -28 36 -48 30 -12 -4 -33 -43 -63 -116 -24 -60 -47
-110 -50 -110 -3 0 -25 49 -49 110 -46 116 -65 137 -99 105 -17 -14 -19 -14
-24 0 -8 20 -56 19 -85 -1 -21 -15 -25 -15 -41 0 -18 16 -27 18 -48 9z"/>
<path d="M4362 4444 c-29 -7 -66 -21 -82 -29 -23 -12 -69 -15 -221 -15 l-192
0 6 -67 c4 -38 7 -85 7 -105 l0 -38 91 0 c75 0 90 -3 86 -14 -32 -84 -39 -206
-18 -296 39 -160 171 -292 332 -333 l54 -14 3 -918 2 -917 -172 7 c-176 7
-620 -8 -723 -25 -31 -5 -69 -18 -84 -30 -29 -20 -37 -20 -1128 -21 -1018 0
-1096 -1 -1073 -16 14 -9 61 -53 106 -97 65 -65 89 -98 122 -166 53 -111 77
-226 69 -337 l-6 -83 258 0 c142 0 260 -3 263 -6 5 -4 -148 -481 -158 -493 -2
-2 -50 -12 -108 -22 -122 -22 -205 -51 -232 -80 -19 -21 -18 -21 8 -44 154
-132 1262 -167 1734 -55 231 55 212 121 -48 171 -62 12 -119 25 -127 28 -13 7
-171 458 -171 489 0 10 43 12 203 10 l202 -3 11 -185 c12 -198 20 -230 70
-269 39 -31 80 -38 269 -50 319 -20 510 -23 735 -12 398 20 439 30 478 114 59
124 60 931 2 1063 -29 66 -66 86 -187 97 l-103 10 0 931 0 931 60 29 c262 125
335 492 143 715 -111 130 -312 191 -481 145z m363 -276 c-16 -53 -85 -148
-160 -224 -70 -70 -165 -144 -185 -144 -23 0 -64 51 -100 123 -48 95 -42 105
40 61 l50 -27 57 54 c71 67 133 110 215 149 77 37 92 38 83 8z"/>
<path d="M640 4381 c-108 -35 -200 -115 -248 -219 l-27 -57 -2 -345 c-2 -190
-4 -766 -5 -1281 l-3 -936 48 38 c26 21 74 50 107 66 l59 28 0 1178 c1 1277
-2 1215 54 1276 50 54 83 61 320 61 l217 0 0 105 0 105 -232 -1 c-194 0 -242
-3 -288 -18z"/>
<path d="M1381 4053 l-30 -28 -2 -215 c-3 -224 1 -249 41 -270 11 -6 105 -10
230 -10 177 0 215 3 235 16 42 27 48 72 40 288 l-7 196 -30 25 c-29 25 -30 25
-239 25 l-209 0 -29 -27z m362 -175 c-33 -61 -167 -198 -193 -198 -17 0 -55
41 -93 103 -22 34 -15 34 40 1 l44 -26 58 55 c55 53 145 117 164 117 4 0 -4
-23 -20 -52z"/>
<path d="M1381 3303 l-30 -28 -2 -215 c-3 -224 1 -249 41 -270 11 -6 106 -10
232 -10 176 0 217 3 235 15 40 28 46 76 38 289 l-7 196 -30 25 c-29 25 -30 25
-239 25 l-209 0 -29 -27z m362 -175 c-33 -60 -167 -198 -192 -198 -21 0 -48
29 -85 88 -30 48 -24 52 28 17 20 -14 40 -25 44 -25 4 0 28 21 52 46 45 45
154 124 172 124 5 0 -3 -23 -19 -52z"/>
<path d="M1381 2553 l-30 -28 -2 -215 c-3 -224 1 -249 41 -270 25 -13 435 -13
461 0 10 6 26 25 35 42 15 28 16 58 10 238 l-7 205 -30 28 -29 27 -210 0 -210
0 -29 -27z m362 -175 c-33 -61 -166 -198 -191 -198 -22 0 -49 28 -86 88 -30
48 -25 52 26 17 20 -14 41 -25 45 -25 5 0 29 21 53 46 45 45 154 124 172 124
5 0 -3 -23 -19 -52z"/>
</g>
</svg>
